<svg width="973" height="374" viewBox="0 0 973 374" fill="none" xmlns="http://www.w3.org/2000/svg">
<path d="M127.215 224.165L125.545 223.065L123.503 226.165H127.215V224.165ZM305.703 224.165H307.703V222.165H305.703V224.165ZM305.703 292.541V294.541H307.703V292.541H305.703ZM262.191 292.541V290.541H260.191V292.541H262.191ZM262.191 360.917V362.917H264.191V360.917H262.191ZM193.815 360.917H191.815V362.917H193.815V360.917ZM193.815 292.541H195.815V290.541H193.815V292.541ZM0.231445 292.541L-1.43929 291.442L-3.47875 294.541H0.231445V292.541ZM180.495 18.5931V16.5931H179.417L178.825 17.4937L180.495 18.5931ZM262.635 18.5931L264.306 19.6933L266.348 16.5931H262.635V18.5931ZM127.215 226.165H305.703V222.165H127.215V226.165ZM303.703 224.165V292.541H307.703V224.165H303.703ZM305.703 290.541H262.191V294.541H305.703V290.541ZM260.191 292.541V360.917H264.191V292.541H260.191ZM262.191 358.917H193.815V362.917H262.191V358.917ZM195.815 360.917V292.541H191.815V360.917H195.815ZM193.815 290.541H0.231445V294.541H193.815V290.541ZM1.90218 293.641L182.166 19.6925L178.825 17.4937L-1.43929 291.442L1.90218 293.641ZM180.495 20.5931H262.635V16.5931H180.495V20.5931ZM260.965 17.4929L125.545 223.065L128.886 225.265L264.306 19.6933L260.965 17.4929ZM418.275 155.345H416.275V157.345H418.275V155.345ZM555.027 155.345V157.345H557.027V155.345H555.027ZM555.027 224.165H557.027V222.165H555.027V224.165ZM418.275 224.165V222.165H416.275V224.165H418.275ZM486.651 11.7131C520.932 11.7131 554.708 21.4979 579.859 38.9939C604.984 56.4721 621.403 81.554 621.403 112.277H625.403C625.403 79.9523 608.078 53.7521 582.143 35.7103C556.234 17.6863 521.634 7.71311 486.651 7.71311V11.7131ZM621.403 112.277V267.233H625.403V112.277H621.403ZM621.403 267.233C621.403 297.307 605.522 322.39 580.676 340.028C555.807 357.682 522.037 367.797 486.651 367.797V371.797C522.748 371.797 557.355 361.488 582.991 343.289C608.65 325.075 625.403 298.876 625.403 267.233H621.403ZM486.651 367.797C452.37 367.797 418.593 358.012 393.443 340.516C368.318 323.038 351.899 297.956 351.899 267.233H347.899C347.899 299.558 365.224 325.758 391.159 343.8C417.068 361.824 451.668 371.797 486.651 371.797V367.797ZM351.899 267.233V112.277H347.899V267.233H351.899ZM351.899 112.277C351.899 81.9787 367.782 56.8975 392.624 39.3176C417.49 21.7196 451.26 11.7131 486.651 11.7131V7.71311C450.558 7.71311 415.951 17.9086 390.313 36.0526C364.649 54.2147 347.899 80.4155 347.899 112.277H351.899ZM486.651 76.0891C472.393 76.0891 455.023 79.5857 441.167 85.694C434.237 88.7485 428.078 92.5031 423.621 96.8942C419.159 101.29 416.275 106.462 416.275 112.277H420.275C420.275 107.88 422.441 103.673 426.429 99.7436C430.422 95.8096 436.112 92.2937 442.78 89.3542C456.118 83.4745 472.937 80.0891 486.651 80.0891V76.0891ZM416.275 112.277V155.345H420.275V112.277H416.275ZM418.275 157.345H555.027V153.345H418.275V157.345ZM557.027 155.345V112.277H553.027V155.345H557.027ZM557.027 112.277C557.027 106.607 554.341 101.5 550.087 97.1138C545.84 92.7351 539.929 88.9592 533.157 85.8709C519.614 79.6944 502.235 76.0891 486.651 76.0891V80.0891C501.703 80.0891 518.511 83.5878 531.497 89.5103C537.99 92.4716 543.429 95.9939 547.216 99.8986C550.995 103.796 553.027 107.957 553.027 112.277H557.027ZM486.651 303.421C500.909 303.421 518.278 299.925 532.135 293.816C539.064 290.762 545.223 287.007 549.68 282.616C554.142 278.22 557.027 273.048 557.027 267.233H553.027C553.027 271.63 550.861 275.838 546.873 279.767C542.88 283.701 537.19 287.217 530.522 290.156C517.183 296.036 500.365 299.421 486.651 299.421V303.421ZM557.027 267.233V224.165H553.027V267.233H557.027ZM555.027 222.165H418.275V226.165H555.027V222.165ZM416.275 224.165V267.233H420.275V224.165H416.275ZM416.275 267.233C416.275 272.903 418.96 278.01 423.215 282.396C427.461 286.775 433.373 290.551 440.144 293.639C453.687 299.816 471.067 303.421 486.651 303.421V299.421C471.599 299.421 454.79 295.922 441.804 290C435.311 287.039 429.873 283.516 426.086 279.612C422.307 275.715 420.275 271.553 420.275 267.233H416.275ZM777.172 224.165L775.502 223.065L773.46 226.165H777.172V224.165ZM955.66 224.165H957.66V222.165H955.66V224.165ZM955.66 292.541V294.541H957.66V292.541H955.66ZM912.148 292.541V290.541H910.148V292.541H912.148ZM912.148 360.917V362.917H914.148V360.917H912.148ZM843.772 360.917H841.772V362.917H843.772V360.917ZM843.772 292.541H845.772V290.541H843.772V292.541ZM650.188 292.541L648.518 291.442L646.478 294.541H650.188V292.541ZM830.453 18.5931V16.5931H829.374L828.782 17.4937L830.453 18.5931ZM912.592 18.5931L914.263 19.6933L916.305 16.5931H912.592V18.5931ZM777.172 226.165H955.66V222.165H777.172V226.165ZM953.66 224.165V292.541H957.66V224.165H953.66ZM955.66 290.541H912.148V294.541H955.66V290.541ZM910.148 292.541V360.917H914.148V292.541H910.148ZM912.148 358.917H843.772V362.917H912.148V358.917ZM845.772 360.917V292.541H841.772V360.917H845.772ZM843.772 290.541H650.188V294.541H843.772V290.541ZM651.859 293.641L832.123 19.6925L828.782 17.4937L648.518 291.442L651.859 293.641ZM830.453 20.5931H912.592V16.5931H830.453V20.5931ZM910.922 17.4929L775.502 223.065L778.843 225.265L914.263 19.6933L910.922 17.4929Z" fill="white"/>
<path d="M121.691 208.706C116.526 216.996 105.601 219.469 97.2362 214.256C88.9087 209.067 86.1471 198.274 91.406 189.834C96.5952 181.507 107.459 179.048 115.899 184.307C124.189 189.473 126.927 200.304 121.691 208.706ZM97.1569 193.418C93.9922 198.496 95.5917 205.248 100.82 208.505C106.048 211.763 112.799 210.164 115.941 205.122C119.035 200.156 117.73 193.432 112.315 190.058C107.012 186.754 100.345 188.302 97.1569 193.418ZM132.599 189.538L103.807 171.597L107.391 165.846L130.581 180.296L135.328 172.678L132.415 170.863L129.041 176.278L123.925 173.09L127.299 167.675L112.138 158.228L115.721 152.477L130.883 161.924L134.28 156.472L139.396 159.66L135.999 165.112L138.912 166.927L143.659 159.309L120.468 144.859L124.052 139.108L152.844 157.049L132.599 189.538ZM155.641 152.559L126.812 134.595L130.419 128.807L149.464 140.674L139.029 114.99L142.636 109.201L171.465 127.166L167.858 132.954L154.807 135.76L159.271 146.734L155.641 152.559ZM148.813 121.086L152.182 129.407L159.493 127.741L148.813 121.086ZM158.03 104.547L163.592 95.6223C167.036 90.0955 173.783 88.7525 179.272 92.1732C181.961 93.8486 183.849 96.4765 184.566 99.5678C185.284 102.659 184.747 105.85 183.072 108.539L174.253 122.692L145.424 104.728L158.013 84.5248L163.763 88.1084L154.781 102.523L158.03 104.547ZM163.445 107.921L169.046 111.412L165.446 104.71L163.445 107.921ZM169.267 98.7442L174.794 108.928L177.284 104.932C178.75 102.579 178.018 99.4274 175.665 97.9614C173.574 96.6583 170.911 97.021 169.267 98.7442ZM184.598 73.9756L206.854 70.373L202.084 78.0284L192.571 79.5663L195.266 88.9699L191.682 94.7208L162.853 76.7566L166.437 71.0057L173.98 75.7062L177.832 75.0993L173.255 60.0641L178.025 52.4088L184.598 73.9756ZM187.685 84.2462L186.57 80.5445L185.768 80.6668L182.756 81.1746L187.685 84.2462ZM208.248 68.1356L191.108 57.4548C182.93 52.3587 182.619 43.4556 186.505 37.2193C190.438 30.9082 198.455 27.6093 206.559 32.6589L223.699 43.3397L220.116 49.0906L206.075 40.3411L207.038 59.3456L211.855 62.3474L208.248 68.1356ZM199.831 54.8546L199.317 37.3746C196.183 37.0803 193.69 38.5855 192.317 40.7887C190.059 44.411 190.569 49.0837 194.715 51.6666L199.831 54.8546Z" fill="white"/>
</svg>
