<svg width="35" height="36" fill="none" xmlns="http://www.w3.org/2000/svg"><path fill-rule="evenodd" clip-rule="evenodd" d="M17.165 0C12.648 0 8.533 1.492 6.098 2.711c-.22.11-.425.218-.616.322-.378.206-.7.398-.956.567l2.77 4.078 1.304.519c5.096 2.571 11.93 2.571 17.027 0l1.48-.768L29.726 3.6a15.52 15.52 0 00-1.69-.957C25.615 1.437 21.597 0 17.167 0h-.001zm-6.442 4.616a24.71 24.71 0 01-2.901-.728c2.28-1.013 5.68-2.088 9.343-2.088 2.537 0 4.936.516 6.92 1.17-2.325.327-4.806.882-7.17 1.565-1.86.538-4.034.48-6.192.081zm15.96 5.064l-.246.124c-5.606 2.828-13.042 2.828-18.648 0l-.233-.118c-8.422 9.241-14.852 26.311 9.609 26.311 24.46 0 17.874-17.389 9.518-26.317zM16.126 18a2 2 0 100 4v-4zm2-2v-1h-2v1a4 4 0 100 8v4c-.87 0-1.611-.555-1.887-1.333a1 1 0 10-1.885.666A4 4 0 0016.126 30v1h2v-1a4 4 0 000-8v-4c.87 0 1.61.555 1.887 1.333a1 1 0 101.885-.666A4.001 4.001 0 0018.126 16zm0 8v4a2 2 0 000-4z" fill="#000"/><path fill-rule="evenodd" clip-rule="evenodd" d="M17.165 0C12.648 0 8.533 1.492 6.098 2.711c-.22.11-.425.218-.616.322-.378.206-.7.398-.956.567l2.77 4.078 1.304.519c5.096 2.571 11.93 2.571 17.027 0l1.48-.768L29.726 3.6a15.52 15.52 0 00-1.69-.957C25.615 1.437 21.597 0 17.167 0h-.001zm-6.442 4.616a24.71 24.71 0 01-2.901-.728c2.28-1.013 5.68-2.088 9.343-2.088 2.537 0 4.936.516 6.92 1.17-2.325.327-4.806.882-7.17 1.565-1.86.538-4.034.48-6.192.081zm15.96 5.064l-.246.124c-5.606 2.828-13.042 2.828-18.648 0l-.233-.118c-8.422 9.241-14.852 26.311 9.609 26.311 24.46 0 17.874-17.389 9.518-26.317zM16.126 18a2 2 0 100 4v-4zm2-2v-1h-2v1a4 4 0 100 8v4c-.87 0-1.611-.555-1.887-1.333a1 1 0 10-1.885.666A4 4 0 0016.126 30v1h2v-1a4 4 0 000-8v-4c.87 0 1.61.555 1.887 1.333a1 1 0 101.885-.666A4.001 4.001 0 0018.126 16zm0 8v4a2 2 0 000-4z" fill="url(#paint0_linear_6_570)"/><defs><linearGradient id="paint0_linear_6_570" x1="0" y1="0" x2="35.151" y2="1.263" gradientUnits="userSpaceOnUse"><stop stop-color="#886AFF"/><stop offset=".598" stop-color="#A58FFF"/><stop offset="1" stop-color="#886AFF"/></linearGradient></defs></svg>