<svg width="33" height="36" fill="none" xmlns="http://www.w3.org/2000/svg"><path d="M32.4 19.8a13.5 13.5 0 01-6.3 10.692L16.2 36l-9.9-5.508A13.5 13.5 0 010 19.8V5.4c6.084 0 11.7-2.016 16.2-5.4 4.5 3.402 10.116 5.4 16.2 5.4v14.4zm-16.2 1.944l5.256 3.672-1.854-6.138 5.112-3.87-6.408-.144L16.2 9.216l-2.106 6.048-6.408.144 5.094 3.852-1.854 6.12 5.274-3.618v-.018z" fill="#000"/><path d="M32.4 19.8a13.5 13.5 0 01-6.3 10.692L16.2 36l-9.9-5.508A13.5 13.5 0 010 19.8V5.4c6.084 0 11.7-2.016 16.2-5.4 4.5 3.402 10.116 5.4 16.2 5.4v14.4zm-16.2 1.944l5.256 3.672-1.854-6.138 5.112-3.87-6.408-.144L16.2 9.216l-2.106 6.048-6.408.144 5.094 3.852-1.854 6.12 5.274-3.618v-.018z" fill="url(#paint0_linear_6_575)"/><defs><linearGradient id="paint0_linear_6_575" x1="0" y1="0" x2="33.252" y2="1.13" gradientUnits="userSpaceOnUse"><stop stop-color="#886AFF"/><stop offset=".598" stop-color="#A58FFF"/><stop offset="1" stop-color="#886AFF"/></linearGradient></defs></svg>