<svg width="35" height="30" fill="none" xmlns="http://www.w3.org/2000/svg"><path d="M29.235 4.986A17.147 17.147 0 004.274 28.473l.012.015c.024.025.046.05.072.075.053.06.113.128.184.198a2.942 2.942 0 004.312-.03 11.225 11.225 0 0116.522 0 2.943 2.943 0 004.333.005l.23-.25.013-.015a17.141 17.141 0 00-.715-23.488l-.002.003zm-13.267.697a1.143 1.143 0 012.286 0v2.286a1.143 1.143 0 01-2.286 0V5.682zM7.966 18.256H5.68a1.143 1.143 0 110-2.286h2.286a1.143 1.143 0 110 2.286zm3.486-6.802a1.143 1.143 0 01-1.616 0L8.22 9.84a1.143 1.143 0 011.616-1.617l1.616 1.617a1.143 1.143 0 010 1.616zm10.667 1.65L18.726 18.5a2.214 2.214 0 01-.5.5 2.151 2.151 0 01-2.501-3.501l5.394-3.394a.73.73 0 01.836 0 .719.719 0 01.164 1zm2.266-1.65A1.143 1.143 0 0122.77 9.84l1.616-1.617a1.143 1.143 0 011.617 1.617l-1.617 1.616zm4.157 6.802h-2.286a1.143 1.143 0 110-2.286h2.286a1.143 1.143 0 110 2.286z" fill="#000"/><path d="M29.235 4.986A17.147 17.147 0 004.274 28.473l.012.015c.024.025.046.05.072.075.053.06.113.128.184.198a2.942 2.942 0 004.312-.03 11.225 11.225 0 0116.522 0 2.943 2.943 0 004.333.005l.23-.25.013-.015a17.141 17.141 0 00-.715-23.488l-.002.003zm-13.267.697a1.143 1.143 0 012.286 0v2.286a1.143 1.143 0 01-2.286 0V5.682zM7.966 18.256H5.68a1.143 1.143 0 110-2.286h2.286a1.143 1.143 0 110 2.286zm3.486-6.802a1.143 1.143 0 01-1.616 0L8.22 9.84a1.143 1.143 0 011.616-1.617l1.616 1.617a1.143 1.143 0 010 1.616zm10.667 1.65L18.726 18.5a2.214 2.214 0 01-.5.5 2.151 2.151 0 01-2.501-3.501l5.394-3.394a.73.73 0 01.836 0 .719.719 0 01.164 1zm2.266-1.65A1.143 1.143 0 0122.77 9.84l1.616-1.617a1.143 1.143 0 011.617 1.617l-1.617 1.616zm4.157 6.802h-2.286a1.143 1.143 0 110-2.286h2.286a1.143 1.143 0 110 2.286z" fill="url(#paint0_linear_6_580)"/><defs><linearGradient id="paint0_linear_6_580" x1="0" y1="0" x2="35.135" y2="1.531" gradientUnits="userSpaceOnUse"><stop stop-color="#886AFF"/><stop offset=".598" stop-color="#A58FFF"/><stop offset="1" stop-color="#886AFF"/></linearGradient></defs></svg>