<svg width="24" height="24" fill="none" xmlns="http://www.w3.org/2000/svg"><path opacity=".4" d="M4.391 17.464v4.34l4.34-1.072L12 24l3.268-3.268 4.34 1.072v-4.34L24 16.34 21.804 12 24 7.66l-4.392-1.124v-4.34l-4.34 1.072L12 0 8.732 3.268l-4.34-1.072v4.34L0 7.66 2.196 12 0 16.34l4.391 1.124zm-.255-6.434l-.97-1.992 1.736-.408c.51-.102.91-.35 1.2-.74.29-.392.434-.843.434-1.354V5.004l1.634.46h.562c.579 0 1.09-.221 1.532-.664L12 3.064 13.736 4.8c.443.443.953.664 1.532.664a1.5 1.5 0 00.562-.102l1.634-.358v1.532c0 .51.145.962.434 1.353.29.392.69.639 1.2.74l1.736.41-.97 1.99c-.34.648-.34 1.294 0 1.941l.97 1.992-1.736.408c-.51.102-.91.35-1.2.74-.29.392-.434.843-.434 1.354v1.532l-1.634-.46h-.562c-.579 0-1.09.221-1.532.664L12 20.936 10.264 19.2c-.443-.443-.953-.664-1.532-.664-.204 0-.392.034-.562.102l-1.634.358v-1.532c0-.51-.145-.962-.434-1.353-.29-.392-.69-.639-1.2-.74l-1.736-.41.97-1.99c.34-.648.34-1.294 0-1.941zm6.792 4.698l5.106-5.158c.477-.476.477-.987 0-1.532-.51-.442-1.021-.442-1.532 0l-3.574 3.626-1.43-1.43c-.51-.443-1.021-.443-1.532 0-.443.51-.443 1.021 0 1.532l2.962 2.962z" fill="#000"/></svg>