<svg width="226" height="47" fill="none" xmlns="http://www.w3.org/2000/svg"><path d="M22.924.246C10.84.246.94 9.649 0 21.598l12.33 5.144a6.425 6.425 0 014.027-1.132l5.483-8.021v-.113c0-4.826 3.892-8.754 8.675-8.754 4.783 0 8.675 3.928 8.675 8.754 0 4.827-3.892 8.756-8.675 8.756-.066 0-.13-.002-.197-.003l-7.82 5.63c.004.103.008.208.008.31 0 3.625-2.922 6.573-6.512 6.573-3.151 0-5.788-2.27-6.384-5.277l-8.819-3.68c2.731 9.745 11.603 16.889 22.133 16.889 12.706 0 23.004-10.395 23.004-23.214C45.928 10.639 35.63.246 22.925.246zm-8.508 35.223l-2.826-1.178a4.876 4.876 0 002.518 2.416c2.486 1.046 5.353-.144 6.389-2.655a4.943 4.943 0 00.008-3.774 4.88 4.88 0 00-2.638-2.674 4.833 4.833 0 00-3.604-.055l2.92 1.218c1.834.772 2.701 2.897 1.937 4.747a3.585 3.585 0 01-4.704 1.955zm21.88-17.993c0-3.216-2.594-5.834-5.78-5.834-3.188 0-5.782 2.618-5.782 5.834 0 3.216 2.594 5.833 5.782 5.833 3.186 0 5.78-2.617 5.78-5.833zm-10.113-.01c0-2.42 1.944-4.38 4.341-4.38 2.398 0 4.343 1.96 4.343 4.38s-1.944 4.382-4.343 4.382c-2.397 0-4.342-1.962-4.342-4.381z" fill="#A58FFF"/><path d="M56.851 28.337h5.112c.19 1.45 1.817 2.417 3.809 2.417 2.095 0 3.457-.938 3.457-2.212 0-1.172-.894-1.744-3.296-2.242l-2.768-.541c-3.897-.748-5.904-2.857-5.904-6.065 0-4.101 3.516-6.738 8.408-6.738 5.288 0 8.409 2.563 8.467 6.533h-4.95c-.104-1.538-1.524-2.461-3.458-2.461-1.875 0-3.12.85-3.12 2.139 0 1.142.937 1.772 3.15 2.226l2.739.513c4.174.806 6.05 2.695 6.05 6.035 0 4.204-3.472 6.885-8.921 6.885-5.391 0-8.716-2.388-8.775-6.49zm21.226-13.785h5.185v3.604h2.945v3.838h-2.945v6.958c0 1.142.615 1.714 1.89 1.714.425 0 .747-.03 1.055-.073v3.69c-.513.118-1.275.206-2.286.206-4.19 0-5.844-1.304-5.844-4.497v-7.998h-2.183v-3.838h2.183v-3.604zm17.915 6.944c-1.67 0-2.915 1.23-3.047 2.973h6.064c-.102-1.801-1.289-2.973-3.017-2.973zm3.134 7.837h4.688c-.498 3.34-3.501 5.478-7.72 5.478-5.156 0-8.261-3.178-8.261-8.423 0-5.258 3.134-8.584 8.085-8.584 4.864 0 7.999 3.194 7.999 8.16v1.48h-11.03v.321c0 1.992 1.332 3.355 3.28 3.355 1.436 0 2.564-.674 2.96-1.787zm13.58 1.743c1.669 0 3.09-.996 3.09-2.49v-1.128l-3.003.205c-1.479.102-2.285.732-2.285 1.728 0 1.04.865 1.685 2.198 1.685zm-1.831 3.603c-3.062 0-5.508-2.007-5.508-4.936 0-3.047 2.343-4.732 6.606-4.995l3.823-.235v-.937c0-1.333-.952-2.05-2.417-2.05-1.406 0-2.358.746-2.504 1.757h-4.673c.131-3.296 3.017-5.479 7.426-5.479 4.351 0 7.237 2.212 7.237 5.494V34.46h-5.039v-2.344h-.103c-.879 1.64-2.871 2.563-4.848 2.563zm12.597-.22V18.157h5.039v3.135h.103c.644-2.095 2.461-3.413 4.658-3.413 2.417 0 4.072 1.245 4.541 3.457h.103c.644-2.11 2.607-3.457 5.039-3.457 3.178 0 5.346 2.226 5.346 5.537V34.46h-5.185v-9.727c0-1.728-.806-2.637-2.344-2.637-1.465 0-2.402 1.055-2.402 2.696v9.668h-4.952v-9.8c0-1.64-.849-2.564-2.343-2.564-1.45 0-2.417 1.084-2.417 2.725v9.639h-5.186zm35.947 0h-5.376v-16.8h-5.859v-4.336h17.095v4.336h-5.86V34.46zm12.745-12.963c-1.67 0-2.915 1.23-3.047 2.973h6.064c-.102-1.801-1.289-2.973-3.017-2.973zm3.134 7.837h4.688c-.498 3.34-3.501 5.478-7.72 5.478-5.156 0-8.262-3.178-8.262-8.423 0-5.258 3.135-8.584 8.086-8.584 4.864 0 7.998 3.194 7.998 8.16v1.48h-11.03v.321c0 1.992 1.333 3.355 3.281 3.355 1.436 0 2.564-.674 2.959-1.787zm13.579 1.743c1.67 0 3.091-.996 3.091-2.49v-1.128l-3.003.205c-1.479.102-2.285.732-2.285 1.728 0 1.04.864 1.685 2.197 1.685zm-1.831 3.603c-3.061 0-5.507-2.007-5.507-4.936 0-3.047 2.343-4.732 6.606-4.995l3.823-.235v-.937c0-1.333-.952-2.05-2.417-2.05-1.406 0-2.358.746-2.505 1.757h-4.672c.131-3.296 3.017-5.479 7.426-5.479 4.351 0 7.237 2.212 7.237 5.494V34.46h-5.039v-2.344h-.103c-.879 1.64-2.871 2.563-4.849 2.563zm12.598-.22V18.157h5.039v3.135h.103c.644-2.095 2.461-3.413 4.658-3.413 2.417 0 4.072 1.245 4.541 3.457h.102c.645-2.11 2.608-3.457 5.039-3.457 3.179 0 5.347 2.226 5.347 5.537V34.46h-5.185v-9.727c0-1.728-.806-2.637-2.344-2.637-1.465 0-2.402 1.055-2.402 2.696v9.668h-4.952v-9.8c0-1.64-.849-2.564-2.343-2.564-1.451 0-2.417 1.084-2.417 2.725v9.639h-5.186z" fill="#000"/></svg>