<svg width="115" height="91" fill="none" xmlns="http://www.w3.org/2000/svg"><g opacity=".4"><path d="M34.327.664c17.316 0 34.188 9.879 34.188 25.641v38.739c0 15.429-16.318 25.641-34.188 25.641C17.01 90.685.139 80.806.139 65.044V26.305C.139 10.765 16.456.664 34.327.664zm0 17.094c-6.993 0-17.094 3.441-17.094 8.547v10.767H51.42V26.305c0-4.995-9.435-8.547-17.094-8.547zm0 55.833c6.992 0 17.093-3.441 17.093-8.547V54.277H17.232v10.767c0 4.995 9.436 8.547 17.095 8.547zm80.622-10.767h-8.547v8.547h8.547v17.094H80.761V71.371h8.547v-8.547H80.76V45.73h8.547V19.978H80.76V2.884h25.641V45.73h8.547v17.094z" fill="#fff"/><path d="M17.233 37.072h-1v1h1v-1zm34.188 0v1h1v-1h-1zm0 17.205h1v-1h-1v1zm-34.188 0v-1h-1v1h1zM34.327 1.664c8.482 0 16.823 2.423 23.016 6.73 6.18 4.3 10.171 10.43 10.171 17.911h2c0-8.281-4.444-14.971-11.029-19.552C51.913 2.18 43.16-.336 34.327-.336v2zm33.188 24.641v38.739h2V26.305h-2zm0 38.739c0 7.322-3.862 13.454-9.972 17.79-6.121 4.346-14.459 6.851-23.216 6.851v2c9.113 0 17.87-2.602 24.374-7.22 6.516-4.625 10.813-11.314 10.813-19.421h-2zM34.326 89.685c-8.483 0-16.824-2.423-23.017-6.73-6.18-4.3-10.171-10.43-10.171-17.911h-2c0 8.281 4.444 14.971 11.029 19.552 6.572 4.572 15.325 7.089 24.159 7.089v-2zM1.139 65.044V26.305h-2v38.739h2zm0-38.739c0-7.38 3.862-13.51 9.97-17.832 6.12-4.331 14.458-6.809 23.218-6.809v-2c-9.111 0-17.868 2.572-24.374 7.177C3.434 11.454-.86 18.144-.86 26.305h2zm33.188-9.547c-3.633 0-8.044.888-11.573 2.444-1.765.778-3.364 1.746-4.536 2.901-1.174 1.157-1.985 2.57-1.985 4.202h2c0-.922.451-1.853 1.389-2.777.94-.927 2.304-1.776 3.939-2.496 3.27-1.442 7.405-2.274 10.766-2.274v-2zm-18.094 9.547v10.767h2V26.305h-2zm1 11.767H51.42v-2H17.232v2zm35.188-1V26.305h-2v10.767h2zm0-10.767c0-1.586-.754-2.981-1.877-4.139-1.119-1.154-2.656-2.13-4.383-2.918-3.456-1.575-7.872-2.49-11.834-2.49v2c3.696 0 7.827.861 11.004 2.31 1.588.725 2.888 1.574 3.778 2.49.885.913 1.311 1.836 1.311 2.747h2zM34.326 74.591c3.632 0 8.043-.888 11.572-2.444 1.765-.778 3.364-1.746 4.536-2.901 1.175-1.157 1.985-2.57 1.985-4.202h-2c0 .922-.451 1.853-1.389 2.777-.94.927-2.304 1.776-3.938 2.496-3.27 1.442-7.406 2.274-10.767 2.274v2zm18.093-9.547V54.277h-2v10.767h2zm-1-11.767H17.232v2H51.42v-2zm-35.188 1v10.767h2V54.277h-2zm0 10.767c0 1.586.754 2.981 1.877 4.139 1.119 1.154 2.656 2.13 4.383 2.917 3.456 1.576 7.872 2.491 11.835 2.491v-2c-3.697 0-7.828-.861-11.005-2.31-1.588-.725-2.889-1.574-3.778-2.49-.885-.913-1.311-1.836-1.311-2.747h-2zm98.717-2.22v1h1v-1h-1zm-8.547 0v-1h-1v1h1zm0 8.547h-1v1h1v-1zm8.547 0h1v-1h-1v1zm0 17.094v1h1v-1h-1zm-34.188 0h-1v1h1v-1zm0-17.094v-1h-1v1h1zm8.547 0v1h1v-1h-1zm0-8.547h1v-1h-1v1zm-8.547 0h-1v1h1v-1zm0-17.094v-1h-1v1h1zm8.547 0v1h1v-1h-1zm0-25.752h1v-1h-1v1zm-8.547 0h-1v1h1v-1zm0-17.094v-1h-1v1h1zm25.641 0h1v-1h-1v1zm0 42.846h-1v1h1v-1zm8.547 0h1v-1h-1v1zm0 16.094h-8.547v2h8.547v-2zm-9.547 1v8.547h2v-8.547h-2zm1 9.547h8.547v-2h-8.547v2zm7.547-1v17.094h2V71.371h-2zm1 16.094H80.761v2h34.188v-2zm-33.188 1V71.371h-2v17.094h2zm-1-16.094h8.547v-2H80.76v2zm9.547-1v-8.547h-2v8.547h2zm-1-9.547H80.76v2h8.547v-2zm-7.547 1V45.73h-2v17.094h2zm-1-16.094h8.547v-2H80.76v2zm9.547-1V19.978h-2V45.73h2zm-1-26.752H80.76v2h8.547v-2zm-7.547 1V2.884h-2v17.094h2zm-1-16.094h25.641v-2h-25.64v2zm24.641-1V45.73h2V2.884h-2zm1 43.846h8.547v-2h-8.547v2zm7.547-1v17.094h2V45.73h-2z" fill="#000"/></g></svg>