<svg width="146" height="91" fill="none" xmlns="http://www.w3.org/2000/svg"><path opacity=".4" d="M17.882 37.072h-1v1h1v-1zm34.188 0v1h1v-1h-1zm0 17.205h1v-1h-1v1zm-34.188 0v-1h-1v1h1zM34.976 1.664c8.483 0 16.824 2.423 23.016 6.73 6.18 4.3 10.172 10.43 10.172 17.911h2c0-8.281-4.444-14.971-11.03-19.552C52.563 2.18 43.81-.336 34.977-.336v2zm33.188 24.641v38.739h2V26.305h-2zm0 38.739c0 7.322-3.861 13.454-9.971 17.79-6.122 4.346-14.46 6.851-23.217 6.851v2c9.113 0 17.87-2.602 24.374-7.22 6.517-4.625 10.814-11.314 10.814-19.421h-2zM34.976 89.685c-8.483 0-16.824-2.423-23.017-6.73-6.18-4.3-10.171-10.43-10.171-17.911h-2c0 8.281 4.444 14.971 11.03 19.552 6.572 4.572 15.324 7.089 24.158 7.089v-2zM1.788 65.044V26.305h-2v38.739h2zm0-38.739c0-7.38 3.863-13.51 9.97-17.832 6.12-4.331 14.458-6.809 23.218-6.809v-2c-9.111 0-17.867 2.572-24.373 7.177C4.083 11.454-.212 18.144-.212 26.305h2zm33.188-9.547c-3.633 0-8.044.888-11.573 2.444-1.765.778-3.363 1.746-4.535 2.901-1.175 1.157-1.986 2.57-1.986 4.202h2c0-.922.452-1.853 1.39-2.777.94-.927 2.304-1.776 3.938-2.496 3.27-1.442 7.405-2.274 10.766-2.274v-2zm-18.094 9.547v10.767h2V26.305h-2zm1 11.767H52.07v-2H17.882v2zm35.188-1V26.305h-2v10.767h2zm0-10.767c0-1.586-.753-2.981-1.876-4.139-1.12-1.154-2.656-2.13-4.384-2.918-3.455-1.575-7.872-2.49-11.834-2.49v2c3.697 0 7.827.861 11.004 2.31 1.589.725 2.889 1.574 3.778 2.49.886.913 1.312 1.836 1.312 2.747h2zM34.976 74.591c3.633 0 8.044-.888 11.573-2.444 1.765-.778 3.363-1.746 4.535-2.901 1.175-1.157 1.986-2.57 1.986-4.202h-2c0 .922-.452 1.853-1.39 2.777-.94.927-2.304 1.776-3.938 2.496-3.27 1.442-7.406 2.274-10.766 2.274v2zm18.094-9.547V54.277h-2v10.767h2zm-1-11.767H17.882v2H52.07v-2zm-35.188 1v10.767h2V54.277h-2zm0 10.767c0 1.586.753 2.981 1.876 4.139 1.12 1.154 2.656 2.13 4.384 2.917 3.455 1.576 7.872 2.491 11.834 2.491v-2c-3.697 0-7.827-.861-11.004-2.31-1.589-.725-2.89-1.574-3.778-2.49-.886-.913-1.312-1.836-1.312-2.747h-2zm128.434 6.327h1v-1h-1v1zm0 17.094v1h1v-1h-1zm-68.154 0l-.787-.617-1.268 1.617h2.055v-1zm49.173-62.715l.787.617.343-.438-.191-.522-.939.343zm-32.301 2.553v1h1v-1h-1zm-17.094 0h-1v1h1v-1zm68.376.999l.789.614.211-.27v-.344h-1zm-32.745 42.069l-.789-.614-1.257 1.614h2.046v-1zm31.745 0v17.094h2V71.371h-2zm1 16.094H77.162v2h68.154v-2zm-67.367 1.617l49.173-62.715-1.574-1.234-49.173 62.715 1.574 1.234zm49.325-63.675c-2.337-6.398-9.604-8.649-16.146-8.649v2c6.334 0 12.387 2.188 14.268 7.335l1.878-.686zm-16.146-8.649c-3.617 0-8.051.8-11.618 2.59-3.56 1.787-6.476 4.694-6.476 8.955h2c0-3.176 2.135-5.542 5.373-7.168 3.232-1.622 7.345-2.377 10.721-2.377v-2zM94.034 27.303H76.94v2h17.094v-2zm-16.094 1c0-8.591 3.906-15.213 9.988-19.718 6.107-4.523 14.433-6.921 23.2-6.921v-2c-9.104 0-17.872 2.486-24.39 7.314-6.546 4.848-10.798 12.045-10.798 21.325h2zm33.188-26.639c8.593 0 16.933 2.45 23.097 6.77 6.151 4.312 10.091 10.442 10.091 17.871h2c0-8.222-4.385-14.912-10.943-19.509-6.546-4.587-15.3-7.132-24.245-7.132v2zm33.188 24.641v2.997h2v-2.997h-2zm.211 2.383l-32.745 42.069 1.578 1.228 32.745-42.069-1.578-1.228zM112.571 72.37h32.745v-2h-32.745v2z" fill="#000"/></svg>