<svg width="18" height="18" viewBox="0 0 18 18" fill="none" xmlns="http://www.w3.org/2000/svg">
<path d="M12.5569 11.5495L12.1019 12.0025C12.1019 12.0025 11.0189 13.0785 8.06386 10.1405C5.10886 7.20253 6.19186 6.12653 6.19186 6.12653L6.47786 5.84053C7.18486 5.13853 7.25186 4.01053 6.63486 3.18653L5.37486 1.50353C4.61086 0.483534 3.13586 0.348534 2.26086 1.21853L0.690856 2.77853C0.257856 3.21053 -0.032144 3.76853 0.002856 4.38853C0.092856 5.97553 0.810856 9.38853 4.81486 13.3705C9.06186 17.5925 13.0469 17.7605 14.6759 17.6085C15.1919 17.5605 15.6399 17.2985 16.0009 16.9385L17.4209 15.5265C18.3809 14.5735 18.1109 12.9385 16.8829 12.2715L14.9729 11.2325C14.1669 10.7945 13.1869 10.9235 12.5569 11.5495Z" fill="#886AFF"/>
</svg>
