<svg width="32" height="33" viewBox="0 0 32 33" fill="none" xmlns="http://www.w3.org/2000/svg">
<rect y="0.908447" width="32" height="32" rx="16" fill="#886AFF"/>
<path d="M10.5801 13.7581C10.6338 11.1155 12.5029 9.26782 15.8008 9.26782C18.873 9.26782 20.9033 10.9758 20.9033 13.425C20.9033 15.0471 20.1191 16.175 18.6045 17.0667C17.1758 17.8938 16.7783 18.4202 16.7783 19.4729V20.0422H13.9316L13.9102 19.4192C13.7705 17.7327 14.3613 16.7659 15.8438 15.8958C17.2295 15.0686 17.6484 14.5422 17.6484 13.5217C17.6484 12.5012 16.832 11.76 15.6074 11.76C14.3721 11.76 13.5557 12.5442 13.4912 13.7581H10.5801ZM15.3926 25.177C14.4258 25.177 13.6416 24.4358 13.6416 23.4905C13.6416 22.5452 14.4258 21.804 15.3926 21.804C16.3701 21.804 17.1543 22.5452 17.1543 23.4905C17.1543 24.4358 16.3701 25.177 15.3926 25.177Z" fill="white"/>
</svg>
