<svg width="24" height="24" fill="none" xmlns="http://www.w3.org/2000/svg"><path opacity=".4" d="M12.715 14.909H3.211v-3.653h9.335c.603 0 1.094-.073 1.472-.22.383-.152.662-.372.837-.66.18-.293.267-.653.262-1.082a2.267 2.267 0 00-.262-1.116 1.954 1.954 0 00-.804-.812c-.355-.203-.8-.304-1.336-.304h-2.57v13.597H5.477V3.34h7.238c1.427 0 2.675.251 3.746.753 1.077.501 1.911 1.195 2.503 2.08.598.885.894 1.902.888 3.052.006 1.24-.299 2.284-.913 3.13-.615.84-1.46 1.476-2.537 1.91-1.077.429-2.306.643-3.687.643zm1.184.778v3.653H3.211v-3.653h10.688z" fill="#000"/></svg>