<svg width="24" height="26" fill="none" xmlns="http://www.w3.org/2000/svg"><path opacity=".5" d="M11.98.87C5.663.87.49 5.782 0 12.026l6.443 2.688a3.357 3.357 0 012.104-.591l2.866-4.192v-.059c0-2.522 2.033-4.574 4.533-4.574 2.5 0 4.533 2.052 4.533 4.574s-2.034 4.576-4.533 4.576l-.103-.002-4.087 2.942c.003.054.004.109.004.162 0 1.894-1.526 3.435-3.402 3.435-1.647 0-3.025-1.187-3.336-2.758L.413 16.306c1.428 5.092 6.064 8.825 11.566 8.825C18.62 25.13 24 19.699 24 13 24 6.3 18.619.87 11.98.87zM7.532 19.274l-1.476-.615c.26.55.714 1.01 1.315 1.263a2.547 2.547 0 003.339-1.388c.262-.63.264-1.34.004-1.972a2.55 2.55 0 00-1.379-1.398 2.526 2.526 0 00-1.883-.028l1.526.636a1.903 1.903 0 011.012 2.481 1.873 1.873 0 01-2.458 1.021zm11.433-9.402c0-1.68-1.355-3.048-3.02-3.048-1.666 0-3.021 1.368-3.021 3.048s1.355 3.048 3.021 3.048c1.665 0 3.02-1.367 3.02-3.048zm-5.284-.005a2.28 2.28 0 012.268-2.29 2.28 2.28 0 012.27 2.29 2.28 2.28 0 01-2.27 2.29 2.28 2.28 0 01-2.268-2.29z" fill="#1A1918"/></svg>