<svg width="20" height="18" fill="none" xmlns="http://www.w3.org/2000/svg"><path opacity=".4" fill-rule="evenodd" clip-rule="evenodd" d="M16.826 16.574v-.002l.018-.043 2.999-15.12V1.36c0-.377-.14-.706-.442-.903-.265-.173-.57-.185-.784-.17-.2.019-.396.059-.586.12a3.25 3.25 0 00-.24.089l-.013.005L1.058 7.06l-.005.002a2.27 2.27 0 00-.49.251c-.215.148-.624.496-.555 1.048.057.458.372.748.585.899.125.088.26.162.403.22l.032.014.01.003.007.003 2.926.985c-.01.183.008.37.057.555l1.465 5.56a1.5 1.5 0 002.834.196l2.288-2.446 3.929 3.012.056.024c.357.156.69.205.995.164.305-.042.547-.17.729-.315a1.76 1.76 0 00.49-.635l.008-.017.003-.006v-.003zM5.478 10.659a.3.3 0 01.13-.33l9.92-6.3s.585-.355.564 0c0 0 .104.062-.21.353-.295.277-7.07 6.818-7.756 7.48a.278.278 0 00-.077.136l-1.106 4.22-1.465-5.56z" fill="#000"/></svg>