<svg width="21" height="19" viewBox="0 0 21 19" fill="none" xmlns="http://www.w3.org/2000/svg">
<path fill-rule="evenodd" clip-rule="evenodd" d="M17.304 17.6457V17.6436L17.3224 17.5996L20.3938 2.11473V2.06557C20.3938 1.67948 20.2504 1.34254 19.9412 1.14078C19.6698 0.96361 19.3574 0.951321 19.1382 0.967707C18.9342 0.986158 18.7329 1.02738 18.5381 1.0906C18.455 1.11739 18.373 1.14745 18.2923 1.18073L18.279 1.18585L1.15553 7.90312L1.15041 7.90516C1.09835 7.92294 1.0474 7.9438 0.997817 7.96764C0.876037 8.02235 0.759195 8.08745 0.648589 8.16222C0.428401 8.31379 0.00953183 8.67019 0.0801968 9.23551C0.138572 9.70456 0.461173 10.0016 0.679313 10.1562C0.808071 10.2464 0.946504 10.322 1.09204 10.3815L1.12481 10.3958L1.13505 10.3989L1.14222 10.402L4.13882 11.4108C4.12858 11.5982 4.14702 11.7897 4.1972 11.9792L5.69755 17.6723C5.77951 17.9826 5.95662 18.2595 6.204 18.464C6.45139 18.6685 6.75662 18.7904 7.07682 18.8125C7.39703 18.8347 7.71613 18.756 7.98931 18.5875C8.26249 18.419 8.47603 18.1691 8.59993 17.873L10.9431 15.368L14.9669 18.4527L15.0243 18.4773C15.3899 18.637 15.731 18.6872 16.0433 18.6452C16.3557 18.6022 16.6035 18.4711 16.7899 18.3226C17.0055 18.1478 17.1773 17.9251 17.2917 17.6723L17.2999 17.6549L17.303 17.6487L17.304 17.6457ZM5.68219 11.5879C5.66557 11.5248 5.66952 11.4579 5.69346 11.3972C5.7174 11.3364 5.76009 11.2848 5.81532 11.25L15.9757 4.79795C15.9757 4.79795 16.5738 4.43439 16.5523 4.79795C16.5523 4.79795 16.6588 4.86145 16.3383 5.15947C16.0351 5.44315 9.09664 12.142 8.39408 12.82C8.35502 12.8579 8.32765 12.9062 8.31523 12.9592L7.18254 17.2811L5.68219 11.5869V11.5879Z" fill="#886AFF"/>
</svg>
