<svg width="23" height="16" viewBox="0 0 23 16" fill="none" xmlns="http://www.w3.org/2000/svg">
<path d="M8.82045 11.1969L14.5427 7.88928L8.82045 4.58161V11.1969ZM21.566 2.56393C21.7093 3.08213 21.8086 3.77674 21.8747 4.65879C21.9519 5.54083 21.985 6.3016 21.985 6.96313L22.0511 7.88928C22.0511 10.3039 21.8747 12.079 21.566 13.2146C21.2904 14.2069 20.6509 14.8464 19.6586 15.122C19.1404 15.2654 18.1922 15.3646 16.7368 15.4308C15.3035 15.5079 13.9914 15.541 12.7786 15.541L11.0256 15.6072C6.40585 15.6072 3.52818 15.4308 2.39255 15.122C1.40025 14.8464 0.760764 14.2069 0.485125 13.2146C0.341792 12.6964 0.242562 12.0018 0.176409 11.1198C0.0992301 10.2377 0.0661533 9.47696 0.0661533 8.81543L0 7.88928C0 5.47468 0.176409 3.69957 0.485125 2.56393C0.760764 1.57163 1.40025 0.93215 2.39255 0.656511C2.91075 0.513179 3.85895 0.413949 5.31432 0.347796C6.74764 0.270617 8.05968 0.23754 9.2725 0.23754L11.0256 0.171387C15.6453 0.171387 18.5229 0.347796 19.6586 0.656511C20.6509 0.93215 21.2904 1.57163 21.566 2.56393Z" fill="#886AFF"/>
</svg>
